<svg xmlns="http://www.w3.org/2000/svg" viewBox="0 0 64 64">
  <rect width="64" height="64" rx="12" fill="#059669"/>
  <path d="M32 12c-2.2 0-4 1.8-4 4v2h-6c-2.2 0-4 1.8-4 4v24c0 2.2 1.8 4 4 4h20c2.2 0 4-1.8 4-4V22c0-2.2-1.8-4-4-4h-6v-2c0-2.2-1.8-4-4-4zm0 3c.6 0 1 .4 1 1v3h-2v-3c0-.6.4-1 1-1zm-10 6h20c.6 0 1 .4 1 1v24c0 .6-.4 1-1 1H22c-.6 0-1-.4-1-1V22c0-.6.4-1 1-1z" fill="#fff"/>
  <rect x="25" y="27" width="14" height="2" rx="1" fill="#fff"/>
  <rect x="25" y="32" width="10" height="2" rx="1" fill="#fff"/>
  <rect x="25" y="37" width="12" height="2" rx="1" fill="#fff"/>
</svg>
